<svg width="73" height="90" viewBox="0 0 73 90" fill="none" xmlns="http://www.w3.org/2000/svg">
<path d="M72.108 34.2921C72.108 34.6126 71.7875 34.9332 71.467 34.9332C69.8646 35.2537 68.2622 35.2537 66.9803 35.2537C65.3779 35.2537 64.096 35.2537 62.4936 34.9332C61.8526 34.9332 61.5321 34.2921 61.5321 33.9715C60.8912 31.7278 60.5707 30.4456 60.2502 30.1251C59.9297 30.1251 57.6864 29.8046 53.8406 29.8046C50.9563 29.8046 49.6744 29.8046 49.3539 30.1251C49.0334 30.4456 48.7129 31.4072 48.3925 32.6894C48.072 33.9715 47.7515 34.6126 47.1106 34.9332C45.1877 35.2537 43.2648 35.2537 41.3419 35.2537C38.1371 35.2537 37.4962 34.9332 37.4962 34.6126C37.4962 34.2921 39.419 28.8429 42.9443 18.9063C46.7901 8.00805 49.0334 2.23839 49.3539 0.95624C49.6744 0.315166 49.6744 -0.00537109 49.9949 -0.00537109C50.3153 -0.00537109 51.2768 -0.00537109 51.9178 -0.00537109C52.5587 -0.00537109 53.5201 -0.00537109 53.8406 -0.00537109C54.1611 -0.00537109 54.8021 -0.00537109 55.7635 -0.00537109C56.7249 -0.00537109 57.3659 -0.00537109 57.6864 -0.00537109C58.0069 -0.00537109 58.3273 0.315166 58.6478 0.95624C59.2888 2.55892 61.8526 8.64913 65.6984 18.5858C70.1851 28.843 72.108 33.9715 72.108 34.2921ZM54.802 12.175C54.4816 12.8161 53.8406 14.4188 53.1996 16.9831C52.2382 19.5474 51.9178 21.1501 51.9178 21.4706C51.9178 21.7911 52.5587 21.7911 53.5201 22.1117C54.1611 22.1117 54.8021 22.1117 56.084 22.1117C57.3659 22.1117 57.6864 22.1117 58.0068 21.7911V21.4706C58.0068 20.8295 57.6864 19.5474 56.7249 16.9831C55.7635 15.0599 55.443 13.7777 54.802 12.175Z" fill="#282664"/>
<path d="M66.6598 43.267C63.455 39.7411 58.9683 37.8179 54.1611 37.8179C49.3539 37.8179 44.8672 39.7411 41.6624 43.267C38.4576 46.7929 36.8552 50.9599 36.8552 56.0885C36.8552 61.2171 38.4576 65.384 41.6624 68.91C44.8672 72.4359 49.3539 74.3591 54.1611 74.0385C59.2888 74.0385 63.455 72.4359 66.6598 68.91C69.8646 65.384 71.467 61.2171 71.467 56.0885C71.467 51.2804 69.8646 46.7929 66.6598 43.267ZM54.1611 65.0635C49.0334 65.0635 44.8672 60.8965 44.8672 55.7679C44.8672 50.6393 49.0334 46.4724 54.1611 46.4724C59.2888 46.4724 63.455 50.6393 63.455 55.7679C63.1346 61.2171 59.2888 65.0635 54.1611 65.0635Z" fill="#282664"/>
<path d="M54.1611 51.6011C56.7249 51.6011 58.6478 53.5243 58.6478 56.0886C58.6478 58.6529 56.7249 60.5761 54.1611 60.5761C51.5973 60.5761 49.6744 58.6529 49.6744 56.0886C49.6744 53.5243 51.5973 51.6011 54.1611 51.6011Z" fill="#4579BD"/>
<path d="M33.0094 33.9715C32.689 29.8046 32.689 26.5992 32.689 24.676C32.689 24.0349 32.689 22.7528 32.689 21.1501C32.689 19.5474 32.689 18.9063 32.689 17.9447C32.689 17.6242 29.4842 17.6242 26.5998 17.6242V17.9447C26.5998 21.1501 24.9974 24.0349 22.4336 25.6376C18.2674 28.5224 12.4987 27.5608 9.6144 23.0733C6.73008 18.9063 7.69153 13.1366 12.1782 10.2518C16.3445 7.36698 22.1131 8.32859 24.9974 12.8161C24.9974 12.8161 24.9974 12.8161 24.9974 13.1366C25.6384 12.8161 26.2793 11.8545 27.5613 10.5723C29.1637 8.64913 29.8046 7.68752 29.8046 7.04644C29.8046 6.7259 29.4842 6.40537 29.4842 6.08483C28.2022 4.16161 26.2793 2.55892 24.036 1.59731C21.7926 0.315166 19.5493 -0.00537109 16.9854 -0.00537109C11.8578 -0.00537109 7.69152 1.59731 4.48672 5.12322C1.28192 8.64913 0 12.8161 0 17.9447C0 23.0733 1.6024 27.2403 4.8072 30.4456C8.012 33.651 12.1782 35.5742 17.3059 35.5742C20.5107 35.5742 24.036 34.9332 27.2408 33.651C27.5613 33.651 28.5227 33.9715 29.8046 34.2921C30.7661 34.6126 31.7275 34.6126 32.3685 34.9332C32.6889 34.9332 33.0094 34.6126 33.0094 33.9715Z" fill="#282664"/>
<path d="M22.1131 15.7014H19.2288V13.1371C19.2288 12.1755 18.2673 11.2139 17.3059 11.2139C16.3444 11.2139 15.383 12.1755 15.383 13.1371V16.0219H12.4987C11.5372 16.0219 10.5758 16.9835 10.5758 17.9451C10.5758 18.9068 11.5372 19.8684 12.4987 19.8684H15.383V22.7532C15.383 23.7148 16.3444 24.6764 17.3059 24.6764C18.2673 24.6764 19.2288 23.7148 19.2288 22.7532V19.8684H22.1131C23.0745 19.8684 24.0359 18.9068 24.0359 17.9451C24.0359 16.9835 23.395 15.7014 22.1131 15.7014Z" fill="#EC2624"/>
<path d="M33.0094 72.1152C32.689 67.9482 32.689 64.7429 32.689 62.8196C32.689 62.1786 32.689 60.8964 32.689 59.2937C32.689 57.691 32.689 56.4089 32.689 55.7678C32.689 55.1267 32.3685 54.8062 32.048 54.8062C31.407 54.8062 30.7661 54.8062 29.8046 54.8062C28.8432 54.8062 27.8817 54.8062 27.5613 54.8062C27.2408 54.8062 26.9203 54.8062 26.5998 54.8062C26.5998 55.1268 26.5998 55.4473 26.5998 55.7678C26.5998 60.8964 22.4336 65.0634 17.3059 65.0634C12.1782 65.0634 8.012 60.8964 8.012 55.7678C8.012 50.6392 12.1782 46.4723 17.3059 46.4723C20.5107 46.4723 23.395 48.0749 24.9974 50.6392C25.6384 50.3187 26.2793 49.3571 27.5613 48.0749C29.1637 46.1517 29.8046 45.1901 29.8046 44.549C29.8046 44.2285 29.4842 43.908 29.4842 43.5874C28.2022 41.6642 26.2793 40.0615 24.036 39.0999C21.7926 38.1383 19.5493 37.4972 16.9854 37.8178C11.8578 37.8178 7.69152 39.4204 4.48672 42.9463C1.28192 46.4723 0 50.6392 0 55.7678C0 60.8964 1.6024 65.0634 4.8072 68.2688C8.012 71.4741 12.1782 73.3974 17.3059 73.3974C20.5107 73.3974 24.036 72.7563 27.2408 71.4741C27.5613 71.4741 28.5227 71.7947 29.8046 72.1152C30.7661 72.4357 31.7275 72.4357 32.3685 72.7563C32.6889 73.0768 33.0094 72.7563 33.0094 72.1152Z" fill="#282664"/>
<path d="M17.3059 51.6009C19.8697 51.6009 21.7926 53.5242 21.7926 56.0885C21.7926 58.6527 19.8697 60.576 17.3059 60.576C14.7421 60.576 12.8192 58.6527 12.8192 56.0885C12.8192 53.5242 15.0625 51.2804 17.3059 51.6009Z" fill="#282664"/>
<path d="M3.84576 86.5393C3.84576 87.1803 3.52528 87.8214 2.88432 88.4625C2.24336 88.783 1.60241 89.1036 0.961449 89.4241C0.961449 89.4241 0.640967 89.1036 0.320487 88.783C7.33043e-06 88.4625 0 88.142 0 87.8214C0.32048 87.8214 0.64097 87.5009 0.961449 87.5009C1.28193 87.5009 1.6024 87.1803 1.6024 86.8598C1.6024 86.5393 1.6024 86.2187 1.28192 86.2187C0.961444 85.8982 0.640962 85.5777 0.640962 85.5777C0.320482 85.2571 0.320487 84.9366 0.320487 84.2955C0.320487 83.6544 0.640965 83.0134 1.28192 82.6928C1.92288 82.3723 2.56384 82.0518 2.88432 82.0518C3.2048 82.3723 3.20481 83.0134 3.52529 83.3339C3.20481 83.3339 3.2048 83.3339 2.88432 83.6544C2.56384 83.6544 2.56385 83.975 2.56385 84.2955C2.56385 84.616 2.88432 84.9366 2.88432 84.9366C3.2048 85.5777 3.52529 85.8982 3.52529 85.8982C3.52529 85.8982 3.84576 86.2187 3.84576 86.5393Z" fill="#282664"/>
<path d="M15.0626 83.3344C14.7421 83.3344 14.4216 83.3344 13.4602 83.3344C13.4602 84.296 13.4602 84.937 13.4602 85.2576C13.4602 85.5781 13.4602 86.2192 13.4602 87.1808C13.4602 88.1424 13.4602 88.4629 13.4602 89.104C13.1397 89.104 12.8192 89.104 12.4987 89.104C12.1782 89.104 11.8578 89.104 11.5373 89.104C11.5373 89.104 11.5373 89.104 11.5373 88.7835C11.5373 88.4629 11.5373 87.8219 11.5373 86.8603C11.5373 85.8987 11.5373 85.5781 11.5373 84.937C11.5373 84.6165 11.5373 83.9754 11.5373 83.0138C10.8963 83.0138 10.2554 83.0138 9.93488 83.0138V82.6933C9.93488 82.3727 9.93488 82.3727 9.93488 82.3727V81.7317C9.93488 81.4111 9.93488 81.4111 9.93488 81.4111C10.8963 81.4111 11.5373 81.4111 12.4987 81.4111C12.8192 81.4111 13.4602 81.4111 14.1011 81.4111H14.7421V81.7317V82.0522V82.3727C15.0626 83.0138 15.0626 83.0138 15.0626 83.3344Z" fill="#282664"/>
<path d="M26.9203 86.5395C26.9203 87.1806 26.9203 87.8217 26.5998 88.4627C26.2793 89.1038 25.3179 89.4243 23.7155 89.4243C23.0745 89.4243 22.7541 89.4243 22.1131 89.4243C21.4721 89.4243 21.1517 88.7833 20.8312 88.4627C20.8312 88.1422 20.8312 87.5011 20.8312 87.1806C20.8312 87.1806 20.8312 86.86 20.8312 86.5395C20.8312 86.219 20.8312 85.8984 20.8312 85.8984C20.8312 85.5779 20.8312 84.9368 20.8312 83.9752C20.8312 83.0136 20.8312 82.6931 20.8312 82.052C21.1517 82.052 21.4721 82.052 21.7926 82.052C22.1131 82.052 22.4336 82.052 22.7541 82.052C22.7541 82.3725 22.7541 83.3341 22.7541 83.9752C22.7541 84.6163 22.7541 85.5779 22.7541 85.8984C22.7541 86.219 22.7541 86.5395 23.0746 86.86C23.395 87.1806 23.7155 87.1806 24.036 87.1806C24.6769 87.1806 24.9974 86.86 24.9974 86.5395V86.219C24.9974 85.5779 24.9974 84.9368 24.9974 83.9752C24.9974 83.0136 24.9974 82.3725 24.9974 81.7314C25.3179 81.7314 25.6384 81.7314 25.9589 81.7314C26.2793 81.7314 26.5998 81.7314 26.9203 81.7314C26.9203 82.052 26.9203 82.6931 26.9203 83.6547C26.9203 84.6163 26.9203 84.9368 26.9203 85.5779C26.9203 85.5779 26.9203 85.8984 26.9203 86.219C26.9203 86.219 26.9203 86.219 26.9203 86.5395Z" fill="#282664"/>
<path d="M40.06 85.2574C40.06 86.219 39.7396 87.1806 39.0986 87.8216C38.4576 88.4627 37.4962 88.7833 36.5347 88.7833C36.2143 88.7833 35.8938 88.7833 34.9323 88.7833H34.2914C33.9709 88.7833 33.6504 88.7833 33.6504 88.7833C33.6504 88.4627 33.6504 87.8217 33.6504 87.1806C33.6504 86.5395 33.6504 85.8984 33.6504 85.5779C33.6504 85.2574 33.6504 84.6163 33.6504 83.6547C33.6504 83.0136 33.6504 82.3725 33.6504 81.7314C33.9709 81.7314 34.2914 81.7314 34.9323 81.7314C35.8938 81.7314 36.5347 81.7314 36.8552 81.7314C37.4962 81.7314 38.1371 82.052 38.7781 82.3725C39.0986 82.6931 39.7395 83.0136 39.7395 83.6547C40.06 84.2957 40.06 84.6163 40.06 85.2574ZM38.1371 85.2574C38.1371 84.6163 37.8167 84.2957 37.4962 83.9752C37.1757 83.3341 36.5347 83.3341 36.2143 83.3341C35.5733 83.3341 35.5733 83.3341 35.5733 83.6547C35.5733 83.9752 35.5733 84.2957 35.5733 84.6163C35.5733 84.9368 35.5733 85.2574 35.5733 85.5779C35.5733 85.8984 35.5733 86.219 35.5733 86.5395C35.5733 86.86 35.5733 87.1806 35.5733 87.5011C35.5733 87.8216 35.8938 87.8216 36.5347 87.8216C37.1757 87.8216 37.4962 87.5011 37.8167 87.1806C37.8167 86.219 38.1371 85.8984 38.1371 85.2574Z" fill="#282664"/>
<path d="M48.3924 85.2574C48.3924 85.5779 48.3924 86.219 48.3924 87.1806C48.3924 88.1422 48.3924 88.4627 48.3924 89.1038C48.072 89.1038 47.7515 89.1038 47.431 89.1038C47.1105 89.1038 46.7901 89.1038 46.4696 89.1038C46.4696 89.1038 46.4696 89.1038 46.4696 88.7833C46.4696 88.7833 46.4696 88.4627 46.4696 87.8216C46.4696 86.5395 46.4696 85.5779 46.4696 84.9368C46.4696 84.6163 46.4696 83.9752 46.4696 83.3341C46.4696 82.6931 46.4696 82.052 46.4696 81.7314H47.1105H47.7515H48.072H48.3924C48.3924 82.052 48.3924 82.6931 48.3924 83.3341C48.3924 84.2957 48.072 84.6163 48.3924 85.2574Z" fill="#282664"/>
<path d="M61.8526 85.2573C61.8526 86.2189 61.5321 87.1805 60.8912 87.8215C60.2502 88.4626 59.2888 89.1037 58.3274 89.1037C57.3659 89.1037 56.4045 88.7832 55.7635 87.8215C54.4816 86.2189 54.4816 83.9751 55.7635 82.3724C57.0454 80.7697 59.6093 80.7697 60.8912 82.3724C61.5321 83.334 61.8526 84.2956 61.8526 85.2573ZM59.9298 85.2573C59.9298 84.6162 59.9297 84.2956 59.6093 83.9751C58.9683 83.6546 58.6478 83.334 58.0069 83.334C57.6864 83.334 57.0454 83.6546 56.725 83.9751C56.084 84.6162 56.084 85.8983 56.725 86.5394C57.0454 86.8599 57.3659 87.1805 58.0069 87.1805C58.3273 87.1805 58.9683 86.8599 59.2888 86.5394C59.6093 86.2189 59.9298 85.8983 59.9298 85.2573Z" fill="#282664"/>
<path d="M71.467 86.5393C71.467 87.1803 71.1465 87.8214 70.5055 88.4625C69.8646 88.783 69.2236 89.1036 68.5827 89.4241C68.5827 89.4241 68.2622 89.1036 67.9417 88.783C67.6212 88.4625 67.6212 88.142 67.6212 87.8214C67.9417 87.8214 68.2622 87.5009 68.5827 87.5009C68.9031 87.5009 69.2236 87.1803 69.2236 86.8598C69.2236 86.5393 69.2236 86.2187 68.9031 86.2187C68.5827 85.8982 68.2622 85.5777 68.2622 85.5777C67.9417 85.2571 67.9417 84.9366 67.9417 84.2955C67.9417 83.6544 68.2622 83.0134 68.9031 82.6928C69.5441 82.3723 70.1851 82.0518 70.5055 82.0518C70.5055 82.3723 70.826 82.6928 71.1465 83.3339C70.826 83.3339 70.826 83.3339 70.5055 83.6544C70.1851 83.6544 70.1851 83.975 70.1851 84.2955C70.1851 84.616 70.5055 84.9366 70.5055 84.9366L71.1465 85.8982C71.1465 85.8982 71.467 86.2187 71.467 86.5393Z" fill="#282664"/>
</svg>
