<svg width="18" height="19" viewBox="0 0 18 19" fill="none" xmlns="http://www.w3.org/2000/svg">
<g clip-path="url(#clip0_10_1190)">
<path d="M7.40536 8.95993C7.77889 8.77204 8.06129 8.56277 8.2548 8.33663C8.59908 7.92934 8.76897 7.3893 8.76897 6.71987C8.76897 6.06844 8.59908 5.51152 8.2593 5.04461C7.69226 4.28405 6.73255 3.89476 5.37569 3.87451H0V14.8475H5.01229C5.57708 14.8475 6.10025 14.7992 6.58404 14.7001C7.06783 14.6 7.48636 14.4166 7.84077 14.1489C8.15579 13.916 8.41907 13.6268 8.62833 13.2859C8.95911 12.7706 9.1245 12.1867 9.1245 11.5364C9.1245 10.9063 8.97936 10.3697 8.69134 9.92863C8.39994 9.4876 7.9724 9.1647 7.40536 8.95993ZM2.21756 5.78042H4.63876C5.17092 5.78042 5.60971 5.8378 5.95399 5.95143C6.35227 6.11682 6.55141 6.45322 6.55141 6.96627C6.55141 7.42643 6.39952 7.7482 6.09913 7.92934C5.79648 8.11048 5.40382 8.20162 4.92228 8.20162H2.21756V5.78042ZM6.04625 12.7504C5.77847 12.8798 5.40157 12.9439 4.9189 12.9439H2.21756V10.0175H4.95603C5.43307 10.0209 5.80435 10.0839 6.06987 10.202C6.54241 10.4158 6.77756 10.8073 6.77756 11.38C6.77756 12.0551 6.53454 12.5096 6.04625 12.7504Z" fill="white"/>
<path d="M16.2699 4.38647H11.5029V5.75234H16.2699V4.38647Z" fill="white"/>
<path d="M17.9261 9.77683C17.8271 9.14115 17.6089 8.58198 17.2691 8.09932C16.8967 7.55252 16.4241 7.15199 15.8492 6.89884C15.2765 6.64457 14.6319 6.51744 13.914 6.51856C12.7091 6.51856 11.7302 6.89547 10.9731 7.64365C10.2181 8.39409 9.84009 9.47305 9.84009 10.8794C9.84009 12.3792 10.2575 13.4626 11.0968 14.1276C11.9328 14.7936 12.8981 15.1255 13.9939 15.1255C15.3204 15.1255 16.3521 14.7306 17.0891 13.943C17.5605 13.4458 17.8271 12.9563 17.8856 12.4759H15.6894C15.5623 12.7133 15.4149 12.899 15.2462 13.034C14.9401 13.2815 14.5418 13.4053 14.0536 13.4053C13.5889 13.4053 13.1951 13.3029 12.8666 13.0992C12.3243 12.773 12.0408 12.2014 12.0048 11.388H17.9981C18.0071 10.687 17.9846 10.1481 17.9261 9.77683ZM12.0588 9.98722C12.1375 9.45955 12.3288 9.04102 12.6326 8.73162C12.9363 8.42334 13.3661 8.26808 13.9163 8.26696C14.4237 8.26696 14.8479 8.41209 15.1933 8.70349C15.5342 8.99714 15.7266 9.42355 15.7659 9.98722H12.0588Z" fill="white"/>
</g>
<defs>
<clipPath id="clip0_10_1190">
<rect width="18" height="18" fill="white" transform="translate(0 0.5)"/>
</clipPath>
</defs>
</svg>
