<svg width="18" height="19" viewBox="0 0 18 19" fill="none" xmlns="http://www.w3.org/2000/svg">
<path d="M6.75 6C6.75 6.27614 6.52614 6.5 6.25 6.5H5C4.72386 6.5 4.5 6.72386 4.5 7V9C4.5 9.27614 4.72386 9.5 5 9.5H6.25C6.52614 9.5 6.75 9.72386 6.75 10V18C6.75 18.2761 6.97386 18.5 7.25 18.5H10C10.2761 18.5 10.5 18.2761 10.5 18V10C10.5 9.72386 10.7239 9.5 11 9.5H12.7475C13.0044 9.5 13.2195 9.30535 13.245 9.04975L13.445 7.04975C13.4745 6.75541 13.2433 6.5 12.9475 6.5H11C10.7239 6.5 10.5 6.27614 10.5 6V5.225C10.5 4.55 10.65 4.25 11.325 4.25H13C13.2761 4.25 13.5 4.02614 13.5 3.75V1C13.5 0.723858 13.2761 0.5 13 0.5H10.65C7.95 0.5 6.75 1.7 6.75 3.95V6Z" fill="white"/>
</svg>
