<svg width="18" height="19" viewBox="0 0 18 19" fill="none" xmlns="http://www.w3.org/2000/svg">
<g clip-path="url(#clip0_10_1192)">
<path d="M17.9459 5.78937C17.9021 4.83136 17.7499 4.17712 17.5275 3.60474C17.3015 3.0042 16.9472 2.46024 16.4894 2.01062C16.0399 1.55276 15.4958 1.19832 14.8953 0.972275C14.3227 0.749939 13.6686 0.597916 12.7106 0.554382C11.7508 0.510437 11.4442 0.5 9 0.5C6.55582 0.5 6.24916 0.510437 5.28937 0.554108C4.33136 0.597916 3.67726 0.750076 3.10474 0.972549C2.5042 1.19846 1.96024 1.55276 1.51062 2.01062C1.05276 2.4601 0.698318 3.00406 0.472275 3.6046C0.249939 4.17712 0.0979156 4.83136 0.0543823 5.78923C0.010437 6.74916 0 7.05568 0 9.49986C0 11.9442 0.010437 12.2508 0.0543823 13.2106C0.098053 14.1685 0.250214 14.8227 0.472687 15.3953C0.698593 15.9957 1.0529 16.5398 1.51076 16.9892C1.96024 17.4471 2.50433 17.8014 3.10487 18.0273C3.67726 18.2499 4.3315 18.4019 5.28951 18.4458C6.24944 18.4896 6.55595 18.4999 9.00014 18.4999C11.4443 18.4999 11.751 18.4896 12.7108 18.4458C13.6688 18.4019 14.3229 18.2499 14.8954 18.0273C16.1043 17.5598 17.06 16.6042 17.5275 15.3953C17.7501 14.8227 17.9021 14.1685 17.9459 13.2106C17.9896 12.2507 18 11.9442 18 9.5C18 7.05568 17.9896 6.74916 17.9459 5.78937ZM16.3258 13.1369C16.2859 14.0144 16.1392 14.491 16.016 14.808C15.7132 15.593 15.0929 16.2133 14.3079 16.5161C13.9908 16.6393 13.5143 16.786 12.6367 16.826C11.6879 16.8694 11.4033 16.8784 9 16.8784C6.5966 16.8784 6.31206 16.8694 5.36311 16.826C4.48572 16.786 4.00919 16.6393 3.69196 16.5161C3.30112 16.3718 2.94749 16.1418 2.65718 15.8428C2.35822 15.5525 2.12819 15.199 1.98386 14.808C1.86067 14.491 1.714 14.0144 1.67404 13.1369C1.63078 12.1879 1.62158 11.9033 1.62158 9.50014C1.62158 7.09688 1.63078 6.81233 1.67404 5.86325C1.71414 4.98572 1.86067 4.50919 1.98386 4.19209C2.12819 3.80112 2.35835 3.44749 2.65718 3.15718C2.94749 2.85822 3.30112 2.62819 3.69209 2.48399C4.00919 2.36067 4.48572 2.21414 5.36325 2.17404C6.31219 2.13078 6.59688 2.12158 9 2.12158H8.99986C11.403 2.12158 11.6877 2.13078 12.6367 2.17418C13.5143 2.21414 13.9907 2.36081 14.3079 2.48399C14.6987 2.62833 15.0524 2.85835 15.3427 3.15718C15.6416 3.44749 15.8717 3.80112 16.0159 4.19209C16.1392 4.50919 16.2859 4.98572 16.3258 5.86325C16.3691 6.81219 16.3783 7.09688 16.3783 9.5C16.3783 11.9033 16.3692 12.1878 16.3258 13.1369Z" fill="white"/>
<path d="M8.99983 4.87817C6.44743 4.87817 4.3783 6.94745 4.3783 9.49985C4.3783 12.0522 6.44743 14.1214 8.99983 14.1214C11.5524 14.1214 13.6215 12.0522 13.6215 9.49985C13.6215 6.94745 11.5524 4.87817 8.99983 4.87817ZM8.99983 12.4998C7.34309 12.4997 5.99988 11.1566 6.00002 9.49971C6.00002 7.84297 7.34309 6.49976 8.99997 6.49976C10.6568 6.49989 11.9999 7.84297 11.9999 9.49971C11.9999 11.1566 10.6567 12.4998 8.99983 12.4998Z" fill="white"/>
<path d="M14.8842 4.69582C14.8842 5.29224 14.4006 5.77577 13.8042 5.77577C13.2077 5.77577 12.7241 5.29224 12.7241 4.69582C12.7241 4.09926 13.2077 3.61572 13.8042 3.61572C14.4006 3.61572 14.8842 4.09926 14.8842 4.69582Z" fill="white"/>
</g>
<defs>
<clipPath id="clip0_10_1192">
<rect width="18" height="18" fill="white" transform="translate(0 0.5)"/>
</clipPath>
</defs>
</svg>
