<svg width="85" height="106" viewBox="0 0 85 106" fill="none" xmlns="http://www.w3.org/2000/svg">
<path d="M84.9999 40.4294C84.9999 40.8073 84.6222 41.1851 84.2444 41.1851C82.3555 41.563 80.4666 41.563 78.9555 41.563C77.0666 41.563 75.5555 41.563 73.6666 41.1851C72.911 41.1851 72.5333 40.4294 72.5333 40.0516C71.7777 37.4067 71.3999 35.8953 71.0222 35.5174C70.6444 35.5174 67.9999 35.1396 63.4666 35.1396C60.0666 35.1396 58.5555 35.1396 58.1777 35.5174C57.7999 35.8953 57.4222 37.0288 57.0444 38.5402C56.6666 40.0516 56.2888 40.8073 55.5333 41.1851C53.2666 41.563 50.9999 41.563 48.7333 41.563C44.9555 41.563 44.2 41.1851 44.2 40.8073C44.2 40.4294 46.4666 34.0061 50.6222 22.2929C55.1555 9.44613 57.7999 2.64492 58.1777 1.13354C58.5555 0.377845 58.5555 0 58.9333 0C59.311 0 60.4444 0 61.2 0C61.9555 0 63.0888 0 63.4666 0C63.8444 0 64.5999 0 65.7333 0C66.8666 0 67.6222 0 67.9999 0C68.3777 0 68.7555 0.377845 69.1333 1.13354C69.8888 3.02276 72.911 10.2018 77.4444 21.915C82.7333 34.0061 84.9999 40.0516 84.9999 40.4294ZM64.5999 14.3581C64.2222 15.1138 63.4666 17.003 62.711 20.0258C61.5777 23.0485 61.2 24.9378 61.2 25.3156C61.2 25.6935 61.9555 25.6935 63.0888 26.0713C63.8444 26.0713 64.5999 26.0713 66.111 26.0713C67.6222 26.0713 67.9999 26.0713 68.3777 25.6935V25.3156C68.3777 24.5599 68 23.0485 66.8666 20.0258C65.7333 17.7587 65.3555 16.2473 64.5999 14.3581Z" fill="#282664"/>
<path d="M78.5777 51.0088C74.7999 46.8525 69.511 44.5854 63.8443 44.5854C58.1777 44.5854 52.8888 46.8525 49.111 51.0088C45.3332 55.1651 43.4443 60.0771 43.4443 66.1226C43.4443 72.1681 45.3332 77.0801 49.111 81.2364C52.8888 85.3927 58.1777 87.6598 63.8443 87.2819C69.8888 87.2819 74.7999 85.3927 78.5777 81.2364C82.3555 77.0801 84.2443 72.1681 84.2443 66.1226C84.2443 60.4549 82.3555 55.1651 78.5777 51.0088ZM63.8443 76.7023C57.7999 76.7023 52.8888 71.7903 52.8888 65.7448C52.8888 59.6992 57.7999 54.7873 63.8443 54.7873C69.8888 54.7873 74.7999 59.6992 74.7999 65.7448C74.4221 72.1681 69.8888 76.7023 63.8443 76.7023Z" fill="#282664"/>
<path d="M63.8443 60.8333C66.8665 60.8333 69.1332 63.1003 69.1332 66.1231C69.1332 69.1458 66.8665 71.4129 63.8443 71.4129C60.8221 71.4129 58.5554 69.1458 58.5554 66.1231C58.5554 63.1003 60.8221 60.8333 63.8443 60.8333Z" fill="#4579BD"/>
<path d="M38.9111 40.0516C38.5333 35.1396 38.5333 31.3611 38.5333 29.0941C38.5333 28.3384 38.5333 26.827 38.5333 24.9378C38.5333 23.0485 38.5333 22.2929 38.5333 21.1593C38.5333 20.7815 34.7556 20.7815 31.3556 20.7815V21.1593C31.3556 24.9378 29.4667 28.3384 26.4444 30.2276C21.5333 33.6282 14.7333 32.4947 11.3333 27.2048C7.93333 22.2929 9.06668 15.4916 14.3556 12.091C19.2667 8.69044 26.0667 9.82397 29.4667 15.1138C29.4667 15.1138 29.4667 15.1138 29.4667 15.4916C30.2222 15.1138 30.9778 13.9803 32.4889 12.4689C34.3778 10.2018 35.1333 9.06828 35.1333 8.31259C35.1333 7.93475 34.7556 7.5569 34.7556 7.17906C33.2445 4.91198 30.9778 3.02276 28.3333 1.88923C25.6889 0.377845 23.0445 0 20.0222 0C13.9778 0 9.06667 1.88923 5.28889 6.04552C1.51112 10.2018 0 15.1138 0 21.1593C0 27.2048 1.88889 32.1168 5.66667 35.8953C9.44444 39.6737 14.3556 41.9408 20.4 41.9408C24.1778 41.9408 28.3333 41.1851 32.1111 39.6737C32.4889 39.6737 33.6222 40.0516 35.1333 40.4294C36.2667 40.8073 37.4 40.8073 38.1555 41.1851C38.5333 41.1851 38.9111 40.8073 38.9111 40.0516Z" fill="#282664"/>
<path d="M26.0665 18.5147H22.6665V15.4919C22.6665 14.3584 21.5332 13.2249 20.3999 13.2249C19.2665 13.2249 18.1332 14.3584 18.1332 15.4919V18.8925H14.7332C13.5999 18.8925 12.4666 20.0261 12.4666 21.1596C12.4666 22.2931 13.5999 23.4267 14.7332 23.4267H18.1332V26.8273C18.1332 27.9608 19.2665 29.0943 20.3999 29.0943C21.5332 29.0943 22.6665 27.9608 22.6665 26.8273V23.4267H26.0665C27.1999 23.4267 28.3332 22.2931 28.3332 21.1596C28.3332 20.0261 27.5777 18.5147 26.0665 18.5147Z" fill="#EC2624"/>
<path d="M38.9111 85.0153C38.5333 80.1033 38.5333 76.3248 38.5333 74.0578C38.5333 73.3021 38.5333 71.7907 38.5333 69.9015C38.5333 68.0122 38.5333 66.5008 38.5333 65.7452C38.5333 64.9895 38.1556 64.6116 37.7778 64.6116C37.0222 64.6116 36.2667 64.6116 35.1333 64.6116C34 64.6116 32.8667 64.6116 32.4889 64.6116C32.1111 64.6116 31.7333 64.6116 31.3556 64.6116C31.3556 64.9895 31.3556 65.3673 31.3556 65.7452C31.3556 71.7907 26.4445 76.7027 20.4 76.7027C14.3556 76.7027 9.44444 71.7907 9.44444 65.7452C9.44444 59.6996 14.3556 54.7877 20.4 54.7877C24.1778 54.7877 27.5778 56.6769 29.4667 59.6996C30.2222 59.3218 30.9778 58.1883 32.4889 56.6769C34.3778 54.4098 35.1333 53.2763 35.1333 52.5206C35.1333 52.1427 34.7556 51.7649 34.7556 51.387C33.2445 49.12 30.9778 47.2308 28.3333 46.0972C25.6889 44.9637 23.0445 44.208 20.0222 44.5858C13.9778 44.5858 9.06667 46.4751 5.28889 50.6314C1.51112 54.7877 0 59.6996 0 65.7452C0 71.7907 1.88889 76.7027 5.66667 80.4811C9.44444 84.2596 14.3556 86.5266 20.4 86.5266C24.1778 86.5266 28.3333 85.7709 32.1111 84.2596C32.4889 84.2596 33.6222 84.6374 35.1333 85.0153C36.2667 85.3931 37.4 85.3931 38.1555 85.771C38.5333 86.1488 38.9111 85.7709 38.9111 85.0153Z" fill="#282664"/>
<path d="M20.4 60.8327C23.4222 60.8327 25.6889 63.0998 25.6889 66.1226C25.6889 69.1453 23.4222 71.4124 20.4 71.4124C17.3778 71.4124 15.1111 69.1453 15.1111 66.1226C15.1111 63.0998 17.7555 60.4549 20.4 60.8327Z" fill="#282664"/>
<path d="M4.53334 102.018C4.53334 102.774 4.15556 103.529 3.40001 104.285C2.64445 104.663 1.8889 105.041 1.13334 105.418C1.13334 105.418 0.755564 105.041 0.377786 104.663C8.64102e-06 104.285 0 103.907 0 103.529C0.377778 103.529 0.755567 103.151 1.13334 103.151C1.51112 103.151 1.88889 102.774 1.88889 102.396C1.88889 102.018 1.88889 101.64 1.51112 101.64C1.13334 101.262 0.755558 100.884 0.755558 100.884C0.377781 100.506 0.377786 100.129 0.377786 99.3729C0.377786 98.6172 0.755561 97.8616 1.51112 97.4837C2.26667 97.1059 3.02223 96.728 3.40001 96.728C3.77778 97.1059 3.77779 97.8616 4.15556 98.2394C3.77779 98.2394 3.77778 98.2394 3.40001 98.6173C3.02223 98.6173 3.02223 98.9951 3.02223 99.3729C3.02223 99.7508 3.40001 100.129 3.40001 100.129C3.77778 100.884 4.15556 101.262 4.15556 101.262C4.15556 101.262 4.53334 101.64 4.53334 102.018Z" fill="#282664"/>
<path d="M17.7556 98.2397C17.3779 98.2397 17.0001 98.2397 15.8668 98.2397C15.8668 99.3733 15.8668 100.129 15.8668 100.507C15.8668 100.885 15.8668 101.64 15.8668 102.774C15.8668 103.907 15.8668 104.285 15.8668 105.041C15.489 105.041 15.1112 105.041 14.7334 105.041C14.3556 105.041 13.9778 105.041 13.6001 105.041C13.6001 105.041 13.6001 105.041 13.6001 104.663C13.6001 104.285 13.6001 103.53 13.6001 102.396C13.6001 101.262 13.6001 100.885 13.6001 100.129C13.6001 99.7511 13.6001 98.9954 13.6001 97.8619C12.8445 97.8619 12.089 97.8619 11.7112 97.8619V97.484C11.7112 97.1062 11.7112 97.1062 11.7112 97.1062V96.3505C11.7112 95.9727 11.7112 95.9727 11.7112 95.9727C12.8445 95.9727 13.6001 95.9727 14.7334 95.9727C15.1112 95.9727 15.8667 95.9727 16.6223 95.9727H17.3778V96.3505V96.7283V97.1062C17.7556 97.8619 17.7556 97.8619 17.7556 98.2397Z" fill="#282664"/>
<path d="M31.7332 102.018C31.7332 102.774 31.7332 103.529 31.3554 104.285C30.9777 105.041 29.8443 105.419 27.9554 105.419C27.1999 105.419 26.8221 105.419 26.0665 105.419C25.311 105.419 24.9332 104.663 24.5554 104.285C24.5554 103.907 24.5554 103.152 24.5554 102.774C24.5554 102.774 24.5554 102.396 24.5554 102.018C24.5554 101.64 24.5554 101.262 24.5554 101.262C24.5554 100.884 24.5554 100.129 24.5554 98.9953C24.5554 97.8617 24.5554 97.4839 24.5554 96.7282C24.9332 96.7282 25.311 96.7282 25.6888 96.7282C26.0665 96.7282 26.4443 96.7282 26.8221 96.7282C26.8221 97.106 26.8221 98.2396 26.8221 98.9953C26.8221 99.751 26.8221 100.884 26.8221 101.262C26.8221 101.64 26.8221 102.018 27.1999 102.396C27.5777 102.774 27.9554 102.774 28.3332 102.774C29.0888 102.774 29.4665 102.396 29.4665 102.018V101.64C29.4665 100.884 29.4665 100.129 29.4665 98.9953C29.4665 97.8617 29.4665 97.106 29.4665 96.3503C29.8443 96.3503 30.2221 96.3503 30.5999 96.3503C30.9776 96.3503 31.3554 96.3503 31.7332 96.3503C31.7332 96.7282 31.7332 97.4839 31.7332 98.6174C31.7332 99.751 31.7332 100.129 31.7332 100.884C31.7332 100.884 31.7332 101.262 31.7332 101.64C31.7332 101.64 31.7332 101.64 31.7332 102.018Z" fill="#282664"/>
<path d="M47.2223 100.507C47.2223 101.64 46.8445 102.774 46.089 103.529C45.3334 104.285 44.2001 104.663 43.0668 104.663C42.689 104.663 42.3112 104.663 41.1779 104.663H40.4223C40.0445 104.663 39.6667 104.663 39.6667 104.663C39.6667 104.285 39.6667 103.529 39.6667 102.774C39.6667 102.018 39.6667 101.262 39.6667 100.884C39.6667 100.507 39.6667 99.751 39.6667 98.6174C39.6667 97.8617 39.6667 97.106 39.6667 96.3503C40.0445 96.3503 40.4223 96.3503 41.1779 96.3503C42.3112 96.3503 43.0667 96.3503 43.4445 96.3503C44.2001 96.3503 44.9556 96.7282 45.7112 97.106C46.089 97.4839 46.8445 97.8617 46.8445 98.6174C47.2223 99.3731 47.2223 99.751 47.2223 100.507ZM44.9556 100.507C44.9556 99.751 44.5779 99.3731 44.2001 98.9953C43.8223 98.2396 43.0668 98.2396 42.689 98.2396C41.9334 98.2396 41.9334 98.2396 41.9334 98.6174C41.9334 98.9953 41.9334 99.3731 41.9334 99.7509C41.9334 100.129 41.9334 100.507 41.9334 100.884C41.9334 101.262 41.9334 101.64 41.9334 102.018C41.9334 102.396 41.9334 102.774 41.9334 103.152C41.9334 103.529 42.3112 103.529 43.0668 103.529C43.8223 103.529 44.2001 103.152 44.5779 102.774C44.5779 101.64 44.9556 101.262 44.9556 100.507Z" fill="#282664"/>
<path d="M57.0445 100.507C57.0445 100.884 57.0445 101.64 57.0445 102.774C57.0445 103.907 57.0445 104.285 57.0445 105.041C56.6667 105.041 56.289 105.041 55.9112 105.041C55.5334 105.041 55.1556 105.041 54.7778 105.041C54.7778 105.041 54.7778 105.041 54.7778 104.663C54.7778 104.663 54.7778 104.285 54.7778 103.529C54.7778 102.018 54.7778 100.884 54.7778 100.129C54.7778 99.7509 54.7778 98.9953 54.7778 98.2396C54.7778 97.4839 54.7778 96.7282 54.7778 96.3503H55.5334H56.2889H56.6667H57.0445C57.0445 96.7282 57.0445 97.4839 57.0445 98.2396C57.0445 99.3731 56.6667 99.751 57.0445 100.507Z" fill="#282664"/>
<path d="M72.9112 100.507C72.9112 101.64 72.5334 102.774 71.7779 103.529C71.0223 104.285 69.889 105.041 68.7557 105.041C67.6223 105.041 66.489 104.663 65.7334 103.529C64.2223 101.64 64.2223 98.9954 65.7334 97.1061C67.2445 95.2169 70.2668 95.2169 71.7779 97.1061C72.5334 98.2397 72.9112 99.3732 72.9112 100.507ZM70.6446 100.507C70.6446 99.751 70.6445 99.3732 70.2668 98.9954C69.5112 98.6175 69.1334 98.2397 68.3779 98.2397C68.0001 98.2397 67.2446 98.6175 66.8668 98.9954C66.1112 99.751 66.1112 101.262 66.8668 102.018C67.2446 102.396 67.6223 102.774 68.3779 102.774C68.7556 102.774 69.5112 102.396 69.889 102.018C70.2668 101.64 70.6446 101.262 70.6446 100.507Z" fill="#282664"/>
<path d="M84.2445 102.018C84.2445 102.774 83.8667 103.529 83.1112 104.285C82.3556 104.663 81.6001 105.041 80.8445 105.418C80.8445 105.418 80.4668 105.041 80.089 104.663C79.7112 104.285 79.7112 103.907 79.7112 103.529C80.089 103.529 80.4667 103.151 80.8445 103.151C81.2223 103.151 81.6001 102.774 81.6001 102.396C81.6001 102.018 81.6001 101.64 81.2223 101.64C80.8445 101.262 80.4668 100.884 80.4668 100.884C80.089 100.506 80.089 100.129 80.089 99.3729C80.089 98.6172 80.4667 97.8616 81.2223 97.4837C81.9779 97.1059 82.7334 96.728 83.1112 96.728C83.1112 97.1059 83.489 97.4837 83.8668 98.2394C83.489 98.2394 83.489 98.2394 83.1112 98.6173C82.7334 98.6173 82.7334 98.9951 82.7334 99.3729C82.7334 99.7508 83.1112 100.129 83.1112 100.129L83.8668 101.262C83.8668 101.262 84.2445 101.64 84.2445 102.018Z" fill="#282664"/>
</svg>
